<svg width="59" height="45" viewBox="0 0 59 45" fill="none" xmlns="http://www.w3.org/2000/svg">
<path fill-rule="evenodd" clip-rule="evenodd" d="M53.4322 21.6159L38.8011 15.1484L43.7344 30.813C44.6704 33.6038 47.0297 36.3415 51.0139 36.3415C55.162 36.3415 58.5572 32.956 58.5572 28.8085C58.5572 25.2947 56.397 22.9457 53.4322 21.6159Z" fill="#3F6C45"/>
<path fill-rule="evenodd" clip-rule="evenodd" d="M21.0205 39.5901C22.5114 42.7663 25.7407 44.9783 29.4815 44.9783C33.225 44.9783 36.4335 42.7698 37.923 39.5901H21.0205Z" fill="#DE9950"/>
<path fill-rule="evenodd" clip-rule="evenodd" d="M38.8011 30.2507H20.1225V35.2796H38.8001L38.8011 30.2507Z" fill="#DE9950"/>
<path fill-rule="evenodd" clip-rule="evenodd" d="M38.8011 20.9114H20.1225V25.9402H38.8001L38.8011 20.9114Z" fill="#DE9950"/>
<path fill-rule="evenodd" clip-rule="evenodd" d="M37.923 16.6011C36.4322 13.4251 33.2023 11.2129 29.4618 11.2129C25.7183 11.2129 22.5098 13.4213 21.0205 16.6013L37.923 16.6011Z" fill="#DE9950"/>
<path fill-rule="evenodd" clip-rule="evenodd" d="M0.36615 28.8085C0.36615 32.956 3.76163 36.3415 7.90969 36.3415C11.8937 36.3415 14.2533 33.6038 15.189 30.813L20.1225 15.1484L5.49142 21.6159C2.52664 22.9457 0.36615 25.2947 0.36615 28.8085Z" fill="#3F6C45"/>
<path fill-rule="evenodd" clip-rule="evenodd" d="M34.8578 0.796143C32.4818 0.796143 30.5551 2.7223 30.5551 5.09854C30.5551 7.47479 32.4818 9.40094 34.8578 9.40094C37.234 9.40094 39.1605 7.47479 39.1605 5.09854C39.1605 2.7223 37.234 0.796143 34.8578 0.796143Z" fill="#E89DA8"/>
<path fill-rule="evenodd" clip-rule="evenodd" d="M24.0658 0.796143C21.6896 0.796143 19.7632 2.7223 19.7632 5.09854C19.7632 7.47479 21.6896 9.40094 24.0658 9.40094C26.4421 9.40094 28.3682 7.47479 28.3682 5.09854C28.3682 2.7223 26.4421 0.796143 24.0658 0.796143Z" fill="#E89DA8"/>
</svg>
