<svg width="207" height="120" viewBox="0 0 207 120" fill="none" xmlns="http://www.w3.org/2000/svg">
<rect x="7.35382" y="10" width="100" height="100" fill="black"/>
<rect x="107" y="10" width="100" height="100" fill="white"/>
<path d="M142.5 18H115V102H143V67.5L170.5 102H198.5V18H170.5V53L142.5 18Z" fill="black"/>
<path d="M97.0217 81.7762C92.1436 90.0077 84.6877 96.4012 75.8084 99.9665C66.9292 103.532 57.1222 104.07 47.906 101.498C38.6899 98.9261 30.5789 93.3872 24.8292 85.7391C19.0795 78.0911 16.0118 68.7606 16.1012 59.1927C16.1906 49.6248 19.4322 40.3534 25.3239 32.8141C31.2156 25.2749 39.4287 19.8885 48.6913 17.4891C57.9539 15.0898 67.7491 15.8114 76.5601 19.5421C85.3712 23.2728 92.7063 29.8046 97.4297 38.1258L59.5993 59.5993L97.0217 81.7762Z" fill="white"/>
<circle cx="59.8538" cy="59.5" r="15.5" fill="black"/>
</svg>
