<svg width="46" height="46" viewBox="0 0 46 46" fill="none" xmlns="http://www.w3.org/2000/svg">
<path fill-rule="evenodd" clip-rule="evenodd" d="M22.9891 0C13.7931 0 5.76281 5.198 1.43671 12.9314V17.2419C6.58461 11.0961 14.3277 7.18395 22.9891 7.18395C31.6505 7.18395 39.3933 11.0961 44.5412 17.2419V12.9314C40.2154 5.198 32.1851 0 22.9891 0Z" fill="#CA6040"/>
<path fill-rule="evenodd" clip-rule="evenodd" d="M45.9783 30.1733C42.1933 39.4604 33.3253 45.978 22.9891 45.978C12.6529 45.978 3.78497 39.4604 0 30.1733C3.78497 20.8857 12.6529 14.3682 22.9891 14.3682C33.3253 14.3682 42.1933 20.8857 45.9783 30.1733Z" fill="white"/>
<path fill-rule="evenodd" clip-rule="evenodd" d="M35.9203 30.1734C35.9203 23.0314 30.1308 17.2419 22.9891 17.2419C15.8472 17.2419 10.0577 23.0314 10.0577 30.1734C10.0577 37.315 15.8472 43.1045 22.9891 43.1045C30.1308 43.1045 35.9203 37.315 35.9203 30.1734Z" fill="#A88B6E"/>
<path fill-rule="evenodd" clip-rule="evenodd" d="M28.7364 30.1733C28.7364 33.3473 26.1632 35.9202 22.9892 35.9202C19.8148 35.9202 17.2419 33.3473 17.2419 30.1733C17.2419 26.9989 19.8148 24.4258 22.9892 24.4258C26.1632 24.4258 28.7364 26.9989 28.7364 30.1733Z" fill="black"/>
</svg>
