<svg width="170" height="122" viewBox="0 0 170 122" fill="none" xmlns="http://www.w3.org/2000/svg">
<path d="M122 61C122 52.9894 120.422 45.0572 117.357 37.6563C114.291 30.2554 109.798 23.5309 104.134 17.8665C98.4691 12.2021 91.7445 7.70888 84.3437 4.64335C76.9428 1.57781 69.0106 -3.50156e-07 61 0C52.9894 3.50156e-07 45.0572 1.57781 37.6563 4.64335C30.2554 7.70889 23.5309 12.2021 17.8665 17.8665C12.2021 23.5309 7.70888 30.2555 4.64335 37.6563C1.57781 45.0572 -7.00312e-07 52.9894 0 61L26.1775 61C26.1775 56.427 27.0782 51.8989 28.8282 47.674C30.5782 43.4491 33.1432 39.6103 36.3767 36.3767C39.6103 33.1432 43.4491 30.5782 47.674 28.8282C51.8989 27.0782 56.427 26.1775 61 26.1775C65.573 26.1775 70.1011 27.0782 74.326 28.8282C78.5509 30.5782 82.3897 33.1432 85.6233 36.3767C88.8568 39.6103 91.4218 43.4491 93.1718 47.674C94.9218 51.8989 95.8225 56.427 95.8225 61H122Z" fill="#67C8C6"/>
<path d="M170 61C170 52.9894 168.422 45.0572 165.357 37.6563C162.291 30.2554 157.798 23.5309 152.134 17.8665C146.469 12.2021 139.745 7.70888 132.344 4.64335C124.943 1.57781 117.011 -3.50156e-07 109 0C100.989 3.50156e-07 93.0572 1.57781 85.6563 4.64335C78.2554 7.70889 71.5309 12.2021 65.8665 17.8665C60.2021 23.5309 55.7089 30.2555 52.6433 37.6563C49.5778 45.0572 48 52.9894 48 61L74.1775 61C74.1775 56.427 75.0782 51.8989 76.8282 47.674C78.5782 43.4491 81.1432 39.6103 84.3767 36.3767C87.6103 33.1432 91.4491 30.5782 95.674 28.8282C99.8989 27.0782 104.427 26.1775 109 26.1775C113.573 26.1775 118.101 27.0782 122.326 28.8282C126.551 30.5782 130.39 33.1432 133.623 36.3767C136.857 39.6103 139.422 43.4491 141.172 47.674C142.922 51.8989 143.823 56.427 143.823 61H170Z" fill="#DE4001" fill-opacity="0.77"/>
</svg>
