<svg width="49" height="43" viewBox="0 0 49 43" fill="none" xmlns="http://www.w3.org/2000/svg">
<path fill-rule="evenodd" clip-rule="evenodd" d="M24.3211 20.2753L23.3864 17.5818H6.72522V20.2753H15.6139V17.7192L16.5198 20.2753H24.3211Z" fill="#5B76D2"/>
<path fill-rule="evenodd" clip-rule="evenodd" d="M17.4994 0.612549H0.799438V3.30609H18.4338L17.4994 0.612549Z" fill="#5B76D2"/>
<path fill-rule="evenodd" clip-rule="evenodd" d="M19.4619 6.2688H0.799438V8.96234H20.3963L19.4619 6.2688Z" fill="#5B76D2"/>
<path fill-rule="evenodd" clip-rule="evenodd" d="M28.6089 8.96234H48.2058V6.2688H29.5436L28.6089 8.96234Z" fill="#5B76D2"/>
<path fill-rule="evenodd" clip-rule="evenodd" d="M6.72522 14.6188H22.3586L21.4242 11.9253H6.72522V14.6188Z" fill="#5B76D2"/>
<path fill-rule="evenodd" clip-rule="evenodd" d="M18.5168 25.9318H30.4888L31.4396 23.2383H17.5657L18.5168 25.9318Z" fill="#5B76D2"/>
<path fill-rule="evenodd" clip-rule="evenodd" d="M20.5138 31.5883H28.4918L29.4426 28.8948H19.5629L20.5138 31.5883Z" fill="#5B76D2"/>
<path fill-rule="evenodd" clip-rule="evenodd" d="M22.5108 37.2446H26.4945L27.4456 34.551H21.5599L22.5108 37.2446Z" fill="#5B76D2"/>
<path fill-rule="evenodd" clip-rule="evenodd" d="M24.5026 42.8865L25.4486 40.2075H23.5569L24.5026 42.8865Z" fill="#5B76D2"/>
<path fill-rule="evenodd" clip-rule="evenodd" d="M31.5058 0.612549L30.5717 3.30609H48.2058V0.612549H31.5058Z" fill="#5B76D2"/>
<path fill-rule="evenodd" clip-rule="evenodd" d="M42.28 11.9253H27.5813L26.6467 14.6188H42.28V11.9253Z" fill="#5B76D2"/>
<path fill-rule="evenodd" clip-rule="evenodd" d="M33.3913 20.2753H42.28V17.5818H25.6191L24.6844 20.2753H32.4858L33.3913 17.71V20.2753Z" fill="#5B76D2"/>
<path fill-rule="evenodd" clip-rule="evenodd" d="M33.3914 25.9318H42.28V23.2383H33.3914V25.9318Z" fill="#5B76D2"/>
<path fill-rule="evenodd" clip-rule="evenodd" d="M33.3914 31.5883H42.28V28.8948H33.3914V31.5883Z" fill="#5B76D2"/>
<path fill-rule="evenodd" clip-rule="evenodd" d="M33.3914 37.2446H48.2058V34.551H33.3914V37.2446Z" fill="#5B76D2"/>
<path fill-rule="evenodd" clip-rule="evenodd" d="M33.3914 42.9011H48.2058V40.2075H33.3914V42.9011Z" fill="#5B76D2"/>
<path fill-rule="evenodd" clip-rule="evenodd" d="M6.72522 25.9318H15.6139V23.2383H6.72522V25.9318Z" fill="#5B76D2"/>
<path fill-rule="evenodd" clip-rule="evenodd" d="M6.72522 31.5883H15.6139V28.8948H6.72522V31.5883Z" fill="#5B76D2"/>
<path fill-rule="evenodd" clip-rule="evenodd" d="M0.799438 37.2446H15.6139V34.551H0.799438V37.2446Z" fill="#5B76D2"/>
<path fill-rule="evenodd" clip-rule="evenodd" d="M0.799438 42.9011H15.6139V40.2075H0.799438V42.9011Z" fill="#5B76D2"/>
</svg>
